<svg width="40" height="40" viewBox="0 0 40 40" fill="none" xmlns="http://www.w3.org/2000/svg">
<mask id="mask0_1943_12090" style="mask-type:alpha" maskUnits="userSpaceOnUse" x="0" y="0" width="40" height="40">
<rect width="40" height="40" fill="#D9D9D9"/>
</mask>
<g mask="url(#mask0_1943_12090)">
<path d="M5 33.3333V30H9.58333L8.91667 29.4166C7.47222 28.1388 6.45833 26.6805 5.875 25.0416C5.29167 23.4027 5 21.75 5 20.0833C5 17 5.92361 14.2569 7.77083 11.8541C9.61806 9.45135 12.0278 7.86107 15 7.08329V10.5833C13 11.3055 11.3889 12.5347 10.1667 14.2708C8.94444 16.0069 8.33333 17.9444 8.33333 20.0833C8.33333 21.3333 8.56944 22.5486 9.04167 23.7291C9.51389 24.9097 10.25 26 11.25 27L11.6667 27.4166V23.3333H15V33.3333H5ZM34.875 18.3333H31.5C31.3611 17.3611 31.0625 16.4305 30.6042 15.5416C30.1458 14.6527 29.5278 13.8055 28.75 13L28.3333 12.5833V16.6666H25V6.66663H35V9.99996H30.4167L31.0833 10.5833C32.2222 11.75 33.0972 12.9861 33.7083 14.2916C34.3194 15.5972 34.7083 16.9444 34.875 18.3333ZM28.3333 38.3333L27.8333 35.8333C27.5 35.6944 27.1875 35.5486 26.8958 35.3958C26.6042 35.243 26.3056 35.0555 26 34.8333L23.5833 35.5833L21.9167 32.75L23.8333 31.0833C23.7778 30.6944 23.75 30.3333 23.75 30C23.75 29.6666 23.7778 29.3055 23.8333 28.9166L21.9167 27.25L23.5833 24.4166L26 25.1666C26.3056 24.9444 26.6042 24.7569 26.8958 24.6041C27.1875 24.4513 27.5 24.3055 27.8333 24.1666L28.3333 21.6666H31.6667L32.1667 24.1666C32.5 24.3055 32.8125 24.4583 33.1042 24.625C33.3958 24.7916 33.6944 25 34 25.25L36.4167 24.4166L38.0833 27.3333L36.1667 29C36.2222 29.3333 36.25 29.6805 36.25 30.0416C36.25 30.4027 36.2222 30.75 36.1667 31.0833L38.0833 32.75L36.4167 35.5833L34 34.8333C33.6944 35.0555 33.3958 35.243 33.1042 35.3958C32.8125 35.5486 32.5 35.6944 32.1667 35.8333L31.6667 38.3333H28.3333ZM30 33.3333C30.9167 33.3333 31.7014 33.0069 32.3542 32.3541C33.0069 31.7013 33.3333 30.9166 33.3333 30C33.3333 29.0833 33.0069 28.2986 32.3542 27.6458C31.7014 26.993 30.9167 26.6666 30 26.6666C29.0833 26.6666 28.2986 26.993 27.6458 27.6458C26.9931 28.2986 26.6667 29.0833 26.6667 30C26.6667 30.9166 26.9931 31.7013 27.6458 32.3541C28.2986 33.0069 29.0833 33.3333 30 33.3333Z" fill="white"/>
</g>
</svg>
