<svg width="40" height="40" viewBox="0 0 40 40" fill="none" xmlns="http://www.w3.org/2000/svg">
<mask id="mask0_1762_2837" style="mask-type:alpha" maskUnits="userSpaceOnUse" x="0" y="0" width="40" height="40">
<rect width="40" height="40" fill="#D9D9D9"/>
</mask>
<g mask="url(#mask0_1762_2837)">
<path d="M5 33.3334V30.0001H9.58333L8.91667 29.4167C7.47222 28.139 6.45833 26.6806 5.875 25.0417C5.29167 23.4029 5 21.7501 5 20.0834C5 17.0001 5.92361 14.257 7.77083 11.8542C9.61806 9.45147 12.0278 7.86119 15 7.08341V10.5834C13 11.3056 11.3889 12.5348 10.1667 14.2709C8.94444 16.007 8.33333 17.9445 8.33333 20.0834C8.33333 21.3334 8.56944 22.5487 9.04167 23.7292C9.51389 24.9098 10.25 26.0001 11.25 27.0001L11.6667 27.4167V23.3334H15V33.3334H5ZM34.875 18.3334H31.5C31.3611 17.3612 31.0625 16.4306 30.6042 15.5417C30.1458 14.6529 29.5278 13.8056 28.75 13.0001L28.3333 12.5834V16.6667H25V6.66675H35V10.0001H30.4167L31.0833 10.5834C32.2222 11.7501 33.0972 12.9862 33.7083 14.2917C34.3194 15.5973 34.7083 16.9445 34.875 18.3334ZM28.3333 38.3334L27.8333 35.8334C27.5 35.6945 27.1875 35.5487 26.8958 35.3959C26.6042 35.2431 26.3056 35.0556 26 34.8334L23.5833 35.5834L21.9167 32.7501L23.8333 31.0834C23.7778 30.6945 23.75 30.3334 23.75 30.0001C23.75 29.6667 23.7778 29.3056 23.8333 28.9167L21.9167 27.2501L23.5833 24.4167L26 25.1667C26.3056 24.9445 26.6042 24.757 26.8958 24.6042C27.1875 24.4515 27.5 24.3056 27.8333 24.1667L28.3333 21.6667H31.6667L32.1667 24.1667C32.5 24.3056 32.8125 24.4584 33.1042 24.6251C33.3958 24.7917 33.6944 25.0001 34 25.2501L36.4167 24.4167L38.0833 27.3334L36.1667 29.0001C36.2222 29.3334 36.25 29.6806 36.25 30.0417C36.25 30.4029 36.2222 30.7501 36.1667 31.0834L38.0833 32.7501L36.4167 35.5834L34 34.8334C33.6944 35.0556 33.3958 35.2431 33.1042 35.3959C32.8125 35.5487 32.5 35.6945 32.1667 35.8334L31.6667 38.3334H28.3333ZM30 33.3334C30.9167 33.3334 31.7014 33.007 32.3542 32.3542C33.0069 31.7015 33.3333 30.9167 33.3333 30.0001C33.3333 29.0834 33.0069 28.2987 32.3542 27.6459C31.7014 26.9931 30.9167 26.6667 30 26.6667C29.0833 26.6667 28.2986 26.9931 27.6458 27.6459C26.9931 28.2987 26.6667 29.0834 26.6667 30.0001C26.6667 30.9167 26.9931 31.7015 27.6458 32.3542C28.2986 33.007 29.0833 33.3334 30 33.3334Z" fill="white"/>
</g>
</svg>
