<svg width="40" height="40" viewBox="0 0 40 40" fill="none" xmlns="http://www.w3.org/2000/svg">
<mask id="mask0_1943_12019" style="mask-type:alpha" maskUnits="userSpaceOnUse" x="0" y="0" width="40" height="40">
<rect width="40" height="40" fill="#D9D9D9"/>
</mask>
<g mask="url(#mask0_1943_12019)">
<path d="M8.33333 35C7.41667 35 6.63194 34.6736 5.97917 34.0208C5.32639 33.368 5 32.5833 5 31.6666V8.33329C5 7.41663 5.32639 6.6319 5.97917 5.97913C6.63194 5.32635 7.41667 4.99996 8.33333 4.99996H15.3333C15.6944 3.99996 16.2986 3.1944 17.1458 2.58329C17.9931 1.97218 18.9444 1.66663 20 1.66663C21.0556 1.66663 22.0069 1.97218 22.8542 2.58329C23.7014 3.1944 24.3056 3.99996 24.6667 4.99996H31.6667C32.5833 4.99996 33.3681 5.32635 34.0208 5.97913C34.6736 6.6319 35 7.41663 35 8.33329V31.6666C35 32.5833 34.6736 33.368 34.0208 34.0208C33.3681 34.6736 32.5833 35 31.6667 35H8.33333ZM8.33333 31.6666H31.6667V8.33329H8.33333V31.6666ZM11.6667 28.3333H23.3333V25H11.6667V28.3333ZM11.6667 21.6666H28.3333V18.3333H11.6667V21.6666ZM11.6667 15H28.3333V11.6666H11.6667V15ZM20 7.08329C20.3611 7.08329 20.6597 6.96524 20.8958 6.72913C21.1319 6.49301 21.25 6.1944 21.25 5.83329C21.25 5.47218 21.1319 5.17357 20.8958 4.93746C20.6597 4.70135 20.3611 4.58329 20 4.58329C19.6389 4.58329 19.3403 4.70135 19.1042 4.93746C18.8681 5.17357 18.75 5.47218 18.75 5.83329C18.75 6.1944 18.8681 6.49301 19.1042 6.72913C19.3403 6.96524 19.6389 7.08329 20 7.08329Z" fill="white"/>
</g>
</svg>
