<svg width="40" height="40" viewBox="0 0 40 40" fill="none" xmlns="http://www.w3.org/2000/svg">
<mask id="mask0_1943_12037" style="mask-type:alpha" maskUnits="userSpaceOnUse" x="0" y="0" width="40" height="40">
<rect width="40" height="40" fill="#D9D9D9"/>
</mask>
<g mask="url(#mask0_1943_12037)">
<path d="M35.0425 18.4167V31.6667C35.0425 32.5833 34.7161 33.3681 34.0633 34.0208C33.4106 34.6736 32.6258 35 31.7092 35H8.37584C7.45917 35 6.67445 34.6736 6.02167 34.0208C5.36889 33.3681 5.04251 32.5833 5.04251 31.6667V18.4167C4.40362 17.8333 3.91056 17.0833 3.56334 16.1667C3.21612 15.25 3.20917 14.25 3.54251 13.1667L5.29251 7.5C5.51473 6.77778 5.91056 6.18056 6.48001 5.70833C7.04945 5.23611 7.70917 5 8.45917 5H31.6258C32.3758 5 33.0286 5.22917 33.5842 5.6875C34.1397 6.14583 34.5425 6.75 34.7925 7.5L36.5425 13.1667C36.8758 14.25 36.8689 15.2361 36.5217 16.125C36.1744 17.0139 35.6814 17.7778 35.0425 18.4167ZM23.7092 16.6667C24.4592 16.6667 25.0286 16.4097 25.4175 15.8958C25.8064 15.3819 25.9592 14.8056 25.8758 14.1667L24.9592 8.33333H21.7092V14.5C21.7092 15.0833 21.9036 15.5903 22.2925 16.0208C22.6814 16.4514 23.1536 16.6667 23.7092 16.6667ZM16.2092 16.6667C16.8481 16.6667 17.3689 16.4514 17.7717 16.0208C18.1745 15.5903 18.3758 15.0833 18.3758 14.5V8.33333H15.1258L14.2092 14.1667C14.0981 14.8333 14.2439 15.4167 14.6467 15.9167C15.0495 16.4167 15.5703 16.6667 16.2092 16.6667ZM8.79251 16.6667C9.29251 16.6667 9.73001 16.4861 10.105 16.125C10.48 15.7639 10.7092 15.3056 10.7925 14.75L11.7092 8.33333H8.45917L6.79251 13.9167C6.62584 14.4722 6.71612 15.0694 7.06334 15.7083C7.41056 16.3472 7.98695 16.6667 8.79251 16.6667ZM31.2925 16.6667C32.0981 16.6667 32.6814 16.3472 33.0425 15.7083C33.4036 15.0694 33.4869 14.4722 33.2925 13.9167L31.5425 8.33333H28.3758L29.2925 14.75C29.3758 15.3056 29.605 15.7639 29.98 16.125C30.355 16.4861 30.7925 16.6667 31.2925 16.6667ZM8.37584 31.6667H31.7092V19.9167C31.5703 19.9722 31.48 20 31.4383 20H31.2925C30.5425 20 29.8828 19.875 29.3133 19.625C28.7439 19.375 28.1814 18.9722 27.6258 18.4167C27.1258 18.9167 26.5564 19.3056 25.9175 19.5833C25.2786 19.8611 24.5981 20 23.8758 20C23.1258 20 22.4245 19.8611 21.7717 19.5833C21.1189 19.3056 20.5425 18.9167 20.0425 18.4167C19.5703 18.9167 19.0217 19.3056 18.3967 19.5833C17.7717 19.8611 17.0981 20 16.3758 20C15.5703 20 14.8411 19.8611 14.1883 19.5833C13.5356 19.3056 12.9592 18.9167 12.4592 18.4167C11.8758 19 11.2994 19.4097 10.73 19.6458C10.1606 19.8819 9.51473 20 8.79251 20H8.60501C8.53556 20 8.45917 19.9722 8.37584 19.9167V31.6667Z" fill="white"/>
</g>
</svg>
