<svg width="40" height="40" viewBox="0 0 40 40" fill="none" xmlns="http://www.w3.org/2000/svg">
<mask id="mask0_1943_12082" style="mask-type:alpha" maskUnits="userSpaceOnUse" x="0" y="0" width="40" height="40">
<rect width="40" height="40" fill="#D9D9D9"/>
</mask>
<g mask="url(#mask0_1943_12082)">
<path d="M18.3333 35V31.6667H31.6666V19.8333C31.6666 16.5833 30.5346 13.8264 28.2708 11.5625C26.0069 9.29861 23.2499 8.16667 19.9999 8.16667C16.7499 8.16667 13.993 9.29861 11.7291 11.5625C9.4652 13.8264 8.33325 16.5833 8.33325 19.8333V30H6.66659C5.74992 30 4.9652 29.6736 4.31242 29.0208C3.65964 28.3681 3.33325 27.5833 3.33325 26.6667V23.3333C3.33325 22.75 3.47909 22.2014 3.77075 21.6875C4.06242 21.1736 4.47214 20.7639 4.99992 20.4583L5.12492 18.25C5.34714 16.3611 5.89575 14.6111 6.77075 13C7.64575 11.3889 8.74297 9.98611 10.0624 8.79167C11.3819 7.59722 12.8958 6.66667 14.6041 6C16.3124 5.33333 18.111 5 19.9999 5C21.8888 5 23.6805 5.33333 25.3749 6C27.0694 6.66667 28.5833 7.59028 29.9166 8.77083C31.2499 9.95139 32.3471 11.3472 33.2083 12.9583C34.0694 14.5694 34.6249 16.3194 34.8749 18.2083L34.9999 20.375C35.5277 20.625 35.9374 21 36.2291 21.5C36.5208 22 36.6666 22.5278 36.6666 23.0833V26.9167C36.6666 27.4722 36.5208 28 36.2291 28.5C35.9374 29 35.5277 29.375 34.9999 29.625V31.6667C34.9999 32.5833 34.6735 33.3681 34.0208 34.0208C33.368 34.6736 32.5833 35 31.6666 35H18.3333ZM14.9999 23.3333C14.5277 23.3333 14.1319 23.1736 13.8124 22.8542C13.493 22.5347 13.3333 22.1389 13.3333 21.6667C13.3333 21.1944 13.493 20.7986 13.8124 20.4792C14.1319 20.1597 14.5277 20 14.9999 20C15.4721 20 15.868 20.1597 16.1874 20.4792C16.5069 20.7986 16.6666 21.1944 16.6666 21.6667C16.6666 22.1389 16.5069 22.5347 16.1874 22.8542C15.868 23.1736 15.4721 23.3333 14.9999 23.3333ZM24.9999 23.3333C24.5277 23.3333 24.1319 23.1736 23.8124 22.8542C23.493 22.5347 23.3333 22.1389 23.3333 21.6667C23.3333 21.1944 23.493 20.7986 23.8124 20.4792C24.1319 20.1597 24.5277 20 24.9999 20C25.4721 20 25.868 20.1597 26.1874 20.4792C26.5069 20.7986 26.6666 21.1944 26.6666 21.6667C26.6666 22.1389 26.5069 22.5347 26.1874 22.8542C25.868 23.1736 25.4721 23.3333 24.9999 23.3333ZM10.0416 20.75C9.84714 17.8056 10.736 15.2778 12.7083 13.1667C14.6805 11.0556 17.1388 10 20.0833 10C22.5555 10 24.7291 10.7847 26.6041 12.3542C28.4791 13.9236 29.611 15.9306 29.9999 18.375C27.4721 18.3472 25.1458 17.6667 23.0208 16.3333C20.8958 15 19.2638 13.1944 18.1249 10.9167C17.6805 13.1389 16.743 15.1181 15.3124 16.8542C13.8819 18.5903 12.1249 19.8889 10.0416 20.75Z" fill="white"/>
</g>
</svg>
